<?xml version="1.0" encoding="UTF-8" standalone="no"?>
<!DOCTYPE svg PUBLIC "-//W3C//DTD SVG 1.1//EN" "http://www.w3.org/Graphics/SVG/1.1/DTD/svg11.dtd">
<svg width="100%" height="100%" viewBox="0 0 882 240" version="1.1" xmlns="http://www.w3.org/2000/svg" xmlns:xlink="http://www.w3.org/1999/xlink" xml:space="preserve" xmlns:serif="http://www.serif.com/" style="fill-rule:evenodd;clip-rule:evenodd;stroke-linejoin:round;stroke-miterlimit:2;">
    <g transform="matrix(1,0,0,1,-113.18,-187.209)">
        <g transform="matrix(5.01056,0,0,5.01056,-455.896,-201.47)">
            <g transform="matrix(0.496834,0,0,0.496834,36.9926,37.5845)">
                <g id="path0" transform="matrix(1,0,0,1,0.4805,-1.5056)">
                    <path d="M170.385,83.001C170.309,83.503 170.075,85.372 169.864,87.155C169.653,88.938 169.383,91.206 169.263,92.197C169.143,93.187 168.882,95.402 168.684,97.119C168.486,98.836 168.219,101.104 168.091,102.161C167.782,104.707 167.118,110.356 166.862,112.605C166.75,113.595 166.485,115.864 166.274,117.647C166.063,119.43 165.79,121.753 165.668,122.809C165.546,123.866 165.274,126.188 165.064,127.971C164.854,129.754 164.583,132.077 164.463,133.133C164.343,134.19 164.076,136.459 163.87,138.175C163.664,139.892 163.393,142.161 163.27,143.217C162.718,147.925 162.548,148.841 162.058,149.725C160.755,152.08 158.741,153.28 155.642,153.551C153.764,153.715 153.661,153.753 153.661,154.295L153.661,154.867L163.425,154.805C170.978,154.756 173.212,154.674 173.289,154.442C173.361,154.228 173.036,154.142 172.157,154.142C170.176,154.142 168.269,152.704 167.944,150.966C167.815,150.271 168.175,144.846 168.8,138.055C168.979,136.115 169.353,131.804 169.873,125.69C169.94,124.898 170.105,123.169 170.239,121.849C170.373,120.528 170.593,118.043 170.727,116.327C171.028,112.486 171.318,109.187 171.644,105.882C171.781,104.496 171.896,102.632 171.901,101.741C171.908,100.283 171.957,100.12 172.389,100.12C172.653,100.12 172.869,100.264 172.869,100.441C172.869,100.617 173.233,101.508 173.677,102.421C174.121,103.334 174.729,104.622 175.028,105.282C175.575,106.49 176.527,108.579 177.783,111.33L178.462,112.815L179.947,111.57C180.763,110.885 181.941,109.971 182.565,109.54C183.188,109.109 183.651,108.677 183.595,108.58C183.318,108.103 180.783,102.687 179.354,99.52C179.056,98.86 178.289,97.222 177.649,95.88C176.575,93.63 175.964,92.311 174.568,89.24C171.058,81.511 170.693,80.967 170.385,83.001M226.922,84.073C226.413,85.174 225.589,86.993 225.09,88.115C224.216,90.083 223.02,92.714 222.09,94.718C221.096,96.857 219.699,99.912 218.248,103.121C217.95,103.782 217.341,105.113 216.896,106.08C215.842,108.368 216.005,108.7 218.784,109.923C218.883,109.967 219.061,109.751 219.18,109.443C219.298,109.135 219.691,108.235 220.053,107.443C221.325,104.659 222.246,102.621 223.167,100.553C223.679,99.405 224.174,98.512 224.266,98.57C224.464,98.692 224.885,102.119 225.222,106.363C225.354,108.013 225.564,110.66 225.689,112.245C225.815,113.83 226.022,116.152 226.15,117.407C226.444,120.284 226.822,124.347 227.155,128.211C227.297,129.862 227.504,132.239 227.615,133.493C227.725,134.748 227.931,137.179 228.073,138.896C228.214,140.612 228.44,142.989 228.576,144.178C229.412,151.527 228.456,154.142 224.934,154.142C224.059,154.142 223.77,154.231 223.77,154.502C223.77,154.817 225.13,154.862 234.574,154.862L245.378,154.862L245.378,154.287C245.378,153.74 245.279,153.703 243.397,153.538C240.414,153.276 238.195,151.953 237.118,149.795C236.625,148.806 236.024,144.882 235.174,137.095C234.964,135.18 234.69,133.092 234.564,132.455C234.437,131.817 234.334,130.919 234.334,130.458C234.334,129.996 234.172,128.411 233.974,126.934C233.366,122.393 233.167,120.777 232.773,117.167C232.563,115.252 232.289,113.164 232.163,112.527C232.036,111.889 231.933,110.991 231.933,110.53C231.933,110.068 231.77,108.483 231.571,107.006C231.097,103.484 230.812,101.179 230.366,97.239C230.165,95.456 229.899,93.295 229.777,92.437C229.655,91.579 229.382,89.31 229.171,87.395C228.502,81.309 228.323,81.045 226.922,84.073M196.158,106.838C180.938,108.485 171.802,119.874 172.753,136.014C173.5,148.692 180.712,157.482 192.784,160.432C196.831,161.421 203.948,161.133 208.163,159.81C214.222,157.908 220.154,152.46 220.478,148.499C221.042,141.59 221.151,139.907 221.084,139.097C221.011,138.207 220.998,138.225 220.701,139.616C219.61,144.721 219.365,145.576 218.371,147.75C211.924,161.843 190.859,163.013 182.374,149.749C176.316,140.28 176.71,125.432 183.253,116.606C192.27,104.443 212.853,106.663 217.907,120.344C219.001,123.306 219.105,122.266 218.259,116.807C217.37,111.069 217.582,111.719 216.353,110.971C213.386,109.168 210.665,108.192 205.522,107.085C203.995,106.757 198.299,106.607 196.158,106.838M212.173,116.507C211.971,116.936 211.513,117.935 211.154,118.727C210.795,119.52 210.137,120.959 209.693,121.926C209.248,122.893 208.884,123.718 208.884,123.76C208.884,123.801 208.411,124.847 207.833,126.083C206.257,129.457 205.282,131.597 205.282,131.682C205.282,131.724 204.811,132.77 204.234,134.006C203.658,135.243 202.51,137.767 201.682,139.616C200.855,141.465 200.086,143.078 199.974,143.201C199.856,143.329 199.249,142.313 198.541,140.8C197.866,139.356 196.904,137.311 196.404,136.255C195.903,135.198 195.251,133.794 194.954,133.133C194.015,131.045 193.145,129.158 191.372,125.361C189.281,120.886 188.22,118.58 187.629,117.227C186.999,115.788 186.459,116.164 184.25,119.58C182.61,122.113 182.579,121.717 184.81,126.531C185.269,127.521 185.917,128.926 186.251,129.652C186.585,130.378 187.234,131.783 187.695,132.773C188.155,133.764 188.83,135.222 189.193,136.014C190.601,139.081 191.209,140.4 192.013,142.137C192.472,143.127 193.12,144.532 193.454,145.258C193.787,145.984 194.411,147.335 194.841,148.259C195.27,149.184 196.069,150.912 196.616,152.101C198.243,155.636 198.427,155.942 198.928,155.942C199.21,155.942 199.421,155.753 199.463,155.462C199.657,154.118 201.229,149.359 202.16,147.299C202.518,146.507 203.218,144.94 203.717,143.818C204.215,142.695 204.892,141.182 205.22,140.456C205.549,139.73 206.247,138.163 206.772,136.975C207.703,134.867 208.012,134.18 209.363,131.212C210.38,128.979 211.17,127.242 211.764,125.93C212.064,125.27 212.602,124.082 212.962,123.289C213.321,122.497 213.914,121.178 214.279,120.358L214.942,118.868L213.822,117.297C212.511,115.46 212.637,115.52 212.173,116.507"/>
                </g>
                <g id="path01" serif:id="path0" transform="matrix(0.199578,0,0,0.199578,90.4258,52.5229)">
                    <clipPath id="_clip1">
                        <rect x="635.865" y="403.911" width="45.813" height="72.851"/>
                    </clipPath>
                    <g clip-path="url(#_clip1)">
                        <path d="M640.514,618.638C640.682,617.159 641.2,611.649 641.666,606.393C642.132,601.138 642.729,594.452 642.994,591.531C643.259,588.613 643.836,582.083 644.273,577.022C644.711,571.961 645.301,565.276 645.584,562.16C646.267,554.655 647.734,538.003 648.3,531.374C648.547,528.455 649.133,521.767 649.599,516.511C650.066,511.255 650.669,504.408 650.938,501.295C651.208,498.179 651.809,491.335 652.273,486.079C652.737,480.823 653.336,473.975 653.601,470.863C653.867,467.747 654.457,461.058 654.912,456C655.367,450.939 655.966,444.251 656.238,441.138C657.458,427.26 657.833,424.56 658.916,421.954C661.796,415.012 666.246,411.475 673.095,410.676C677.245,410.192 677.472,410.08 677.472,408.483L677.472,406.797L655.895,406.979C639.204,407.124 634.267,407.366 634.097,408.049C633.938,408.68 634.656,408.934 636.599,408.934C640.976,408.934 645.191,413.173 645.909,418.296C646.194,420.344 645.398,436.336 644.017,456.354C643.622,462.073 642.795,474.78 641.646,492.803C641.498,495.137 641.133,500.234 640.837,504.125C640.541,508.019 640.055,515.344 639.759,520.402C639.094,531.724 638.453,541.449 637.732,551.191C637.429,555.277 637.175,560.771 637.164,563.398C637.149,567.696 637.041,568.176 636.086,568.176C635.502,568.176 635.025,567.752 635.025,567.23C635.025,566.711 634.221,564.085 633.24,561.393C632.258,558.702 630.915,554.905 630.254,552.96C629.045,549.399 626.941,543.241 624.166,535.132L622.665,530.755L619.384,534.425C617.58,536.444 614.977,539.138 613.598,540.408C612.221,541.679 611.198,542.952 611.322,543.238C611.934,544.644 617.536,560.609 620.694,569.945C621.353,571.89 623.048,576.719 624.462,580.674C626.835,587.307 628.186,591.195 631.271,600.247C639.027,623.03 639.834,624.634 640.514,618.638Z"/>
                    </g>
                </g>
                <g transform="matrix(0.167274,4.11427e-33,2.30652e-33,0.23443,101.27,37.1903)">
                    <path d="M748.496,408.145C748.496,406.859 747.453,405.816 746.167,405.816L658.999,405.816C657.714,405.816 656.67,406.859 656.67,408.145L656.67,412.803C656.67,414.088 657.714,415.131 658.999,415.131L746.167,415.131C747.453,415.131 748.496,414.088 748.496,412.803L748.496,408.145Z"/>
                </g>
            </g>
            <g transform="matrix(0.807247,0,0,0.807247,23.0499,-42.5745)">
                <path d="M192.789,163.803C192.789,163.083 192.689,162.486 192.489,162.013C192.289,161.54 192.005,161.186 191.639,160.953C191.272,160.72 190.835,160.61 190.329,160.623L189.369,160.623L189.369,170.003C189.369,170.363 189.362,170.71 189.349,171.043C189.335,171.376 189.315,171.63 189.289,171.803C189.515,171.776 189.805,171.76 190.159,171.753C190.512,171.746 190.755,171.743 190.889,171.743L190.889,173.283L185.049,173.283L185.049,171.963C185.355,171.95 185.612,171.91 185.819,171.843C186.025,171.776 186.185,171.623 186.299,171.383C186.412,171.143 186.469,170.756 186.469,170.223L186.469,160.643L185.549,160.643C184.789,160.656 184.189,160.916 183.749,161.423C183.309,161.93 183.089,162.723 183.089,163.803L181.769,163.803L181.869,159.283L193.989,159.283L194.109,163.803L192.789,163.803Z" style="fill-rule:nonzero;"/>
                <path d="M195.249,173.283L195.249,171.963C195.555,171.95 195.812,171.91 196.019,171.843C196.225,171.776 196.385,171.623 196.499,171.383C196.612,171.143 196.669,170.756 196.669,170.223L196.669,162.563C196.669,162.203 196.679,161.856 196.699,161.523C196.719,161.19 196.735,160.936 196.749,160.763C196.535,160.776 196.269,160.786 195.949,160.793C195.629,160.8 195.395,160.81 195.249,160.823L195.249,159.283L200.989,159.283L200.989,160.603C200.695,160.616 200.442,160.656 200.229,160.723C200.015,160.79 199.852,160.94 199.739,161.173C199.625,161.406 199.569,161.796 199.569,162.343L199.569,165.463L205.069,165.463L205.069,162.563C205.069,162.203 205.075,161.856 205.089,161.523C205.102,161.19 205.122,160.936 205.149,160.763C204.935,160.776 204.669,160.786 204.349,160.793C204.029,160.8 203.795,160.81 203.649,160.823L203.649,159.283L209.389,159.283L209.389,160.603C209.095,160.616 208.842,160.656 208.629,160.723C208.415,160.79 208.252,160.94 208.139,161.173C208.025,161.406 207.969,161.796 207.969,162.343L207.969,170.003C207.969,170.363 207.962,170.71 207.949,171.043C207.935,171.376 207.915,171.63 207.889,171.803C208.102,171.776 208.372,171.76 208.699,171.753C209.025,171.746 209.255,171.743 209.389,171.743L209.389,173.283L203.649,173.283L203.649,171.963C203.955,171.95 204.212,171.91 204.419,171.843C204.625,171.776 204.785,171.623 204.899,171.383C205.012,171.143 205.069,170.756 205.069,170.223L205.069,166.983L199.569,167.043L199.569,170.003C199.569,170.363 199.562,170.71 199.549,171.043C199.535,171.376 199.515,171.63 199.489,171.803C199.702,171.776 199.972,171.76 200.299,171.753C200.625,171.746 200.855,171.743 200.989,171.743L200.989,173.283L195.249,173.283Z" style="fill-rule:nonzero;"/>
                <path d="M217.649,168.463C217.649,167.903 217.562,167.5 217.389,167.253C217.215,167.006 216.979,166.85 216.679,166.783C216.379,166.716 216.049,166.69 215.689,166.703L215.169,166.723L215.169,170.003C215.169,170.363 215.162,170.703 215.149,171.023C215.135,171.343 215.115,171.59 215.089,171.763L217.769,171.763C218.169,171.763 218.555,171.673 218.929,171.493C219.302,171.313 219.609,171.013 219.849,170.593C220.089,170.173 220.209,169.603 220.209,168.883L221.509,168.883L221.409,173.283L210.849,173.283L210.849,171.963C211.155,171.95 211.412,171.91 211.619,171.843C211.825,171.776 211.985,171.623 212.099,171.383C212.212,171.143 212.269,170.756 212.269,170.223L212.269,162.563C212.269,162.203 212.279,161.856 212.299,161.523C212.319,161.19 212.335,160.936 212.349,160.763C212.135,160.776 211.869,160.786 211.549,160.793C211.229,160.8 210.995,160.81 210.849,160.823L210.849,159.283L220.849,159.283L220.969,163.163L219.649,163.163C219.649,162.43 219.522,161.876 219.269,161.503C219.015,161.13 218.702,160.88 218.329,160.753C217.955,160.626 217.589,160.57 217.229,160.583L216.509,160.603C216.229,160.603 215.989,160.64 215.789,160.713C215.589,160.786 215.435,160.946 215.329,161.193C215.222,161.44 215.169,161.823 215.169,162.343L215.169,165.343L217.509,165.343L217.429,163.603L218.969,163.603L218.969,168.463L217.649,168.463Z" style="fill-rule:nonzero;"/>
                <path d="M235.709,173.483C235.255,172.376 234.805,171.276 234.359,170.183C233.912,169.09 233.462,167.996 233.009,166.903C232.902,166.65 232.765,166.293 232.599,165.833C232.432,165.373 232.259,164.843 232.079,164.243C231.899,163.643 231.735,163.023 231.589,162.383C231.615,163.13 231.635,163.833 231.649,164.493C231.662,165.153 231.662,165.783 231.649,166.383L231.649,167.283C231.649,167.59 231.645,167.893 231.639,168.193C231.632,168.493 231.629,168.793 231.629,169.093L231.629,170.003C231.629,170.363 231.619,170.71 231.599,171.043C231.579,171.376 231.555,171.63 231.529,171.803C231.755,171.776 232.032,171.76 232.359,171.753C232.685,171.746 232.915,171.743 233.049,171.743L233.049,173.283L228.489,173.283L228.489,171.963C228.795,171.95 229.052,171.91 229.259,171.843C229.465,171.776 229.625,171.623 229.739,171.383C229.852,171.143 229.909,170.756 229.909,170.223L230.029,162.563C230.042,162.203 230.055,161.856 230.069,161.523C230.082,161.19 230.095,160.936 230.109,160.763C229.895,160.776 229.629,160.786 229.309,160.793C228.989,160.8 228.755,160.81 228.609,160.823L228.609,159.283L233.029,159.283L236.049,167.023C236.169,167.33 236.302,167.686 236.449,168.093C236.595,168.5 236.735,168.893 236.869,169.273C237.002,169.653 237.102,169.956 237.169,170.183L237.189,170.183C237.362,169.716 237.522,169.263 237.669,168.823C237.815,168.383 237.969,167.956 238.129,167.543C238.649,166.156 239.165,164.776 239.679,163.403C240.192,162.03 240.709,160.656 241.229,159.283L245.849,159.283L245.849,160.603C245.555,160.616 245.295,160.656 245.069,160.723C244.842,160.79 244.672,160.94 244.559,161.173C244.445,161.406 244.395,161.796 244.409,162.343L244.709,170.003C244.735,170.363 244.735,170.71 244.709,171.043C244.682,171.376 244.655,171.63 244.629,171.803C244.855,171.776 245.132,171.76 245.459,171.753C245.785,171.746 246.015,171.743 246.149,171.743L246.149,173.283L240.589,173.283L240.589,171.963C240.895,171.95 241.159,171.91 241.379,171.843C241.599,171.776 241.765,171.623 241.879,171.383C241.992,171.143 242.035,170.756 242.009,170.223L241.849,165.983C241.849,165.823 241.835,165.546 241.809,165.153C241.782,164.76 241.759,164.326 241.739,163.853C241.719,163.38 241.702,162.936 241.689,162.523C241.649,162.616 241.609,162.706 241.569,162.793C241.529,162.88 241.495,162.97 241.469,163.063L237.569,173.483L235.709,173.483Z" style="fill-rule:nonzero;"/>
                <path d="M253.469,173.603C252.202,173.603 251.125,173.39 250.239,172.963C249.352,172.536 248.635,171.966 248.089,171.253C247.542,170.54 247.142,169.75 246.889,168.883C246.635,168.016 246.509,167.15 246.509,166.283C246.509,165.443 246.652,164.593 246.939,163.733C247.225,162.873 247.659,162.083 248.239,161.363C248.819,160.643 249.549,160.063 250.429,159.623C251.309,159.183 252.342,158.963 253.529,158.963C254.742,158.963 255.789,159.183 256.669,159.623C257.549,160.063 258.269,160.646 258.829,161.373C259.389,162.1 259.805,162.89 260.079,163.743C260.352,164.596 260.489,165.443 260.489,166.283C260.489,167.11 260.345,167.95 260.059,168.803C259.772,169.656 259.339,170.446 258.759,171.173C258.179,171.9 257.449,172.486 256.569,172.933C255.689,173.38 254.655,173.603 253.469,173.603ZM253.689,172.143C254.382,172.143 254.962,171.973 255.429,171.633C255.895,171.293 256.269,170.85 256.549,170.303C256.829,169.756 257.029,169.16 257.149,168.513C257.269,167.866 257.329,167.236 257.329,166.623C257.329,165.703 257.249,164.863 257.089,164.103C256.929,163.343 256.682,162.686 256.349,162.133C256.015,161.58 255.592,161.153 255.079,160.853C254.565,160.553 253.962,160.41 253.269,160.423C252.589,160.436 252.015,160.62 251.549,160.973C251.082,161.326 250.709,161.78 250.429,162.333C250.149,162.886 249.949,163.49 249.829,164.143C249.709,164.796 249.649,165.43 249.649,166.043C249.649,166.67 249.719,167.336 249.859,168.043C249.999,168.75 250.222,169.416 250.529,170.043C250.835,170.67 251.249,171.176 251.769,171.563C252.289,171.95 252.929,172.143 253.689,172.143Z" style="fill-rule:nonzero;"/>
                <path d="M273.149,173.483L266.749,165.303C266.575,165.076 266.395,164.836 266.209,164.583C266.022,164.33 265.835,164.07 265.649,163.803L265.629,163.803L265.669,170.003C265.669,170.363 265.662,170.71 265.649,171.043C265.635,171.376 265.615,171.63 265.589,171.803C265.802,171.776 266.072,171.76 266.399,171.753C266.725,171.746 266.955,171.743 267.089,171.743L267.089,173.283L262.529,173.283L262.529,171.963C262.835,171.95 263.092,171.91 263.299,171.843C263.505,171.776 263.665,171.623 263.779,171.383C263.892,171.143 263.949,170.756 263.949,170.223L263.909,162.563C263.909,162.203 263.915,161.856 263.929,161.523C263.942,161.19 263.962,160.936 263.989,160.763C263.775,160.776 263.505,160.786 263.179,160.793C262.852,160.8 262.615,160.81 262.469,160.823L262.469,159.283L265.609,159.283L271.729,167.003C272.062,167.43 272.339,167.796 272.559,168.103C272.779,168.41 272.969,168.676 273.129,168.903L273.149,168.903L273.149,162.563C273.149,162.203 273.155,161.856 273.169,161.523C273.182,161.19 273.195,160.936 273.209,160.763C272.995,160.776 272.729,160.786 272.409,160.793C272.089,160.8 271.855,160.81 271.709,160.823L271.709,159.283L276.269,159.283L276.269,160.603C275.975,160.616 275.722,160.656 275.509,160.723C275.295,160.79 275.132,160.94 275.019,161.173C274.905,161.406 274.849,161.796 274.849,162.343L274.849,173.483L273.149,173.483Z" style="fill-rule:nonzero;"/>
                <path d="M288.089,163.803C288.089,163.083 287.989,162.486 287.789,162.013C287.589,161.54 287.305,161.186 286.939,160.953C286.572,160.72 286.135,160.61 285.629,160.623L284.669,160.623L284.669,170.003C284.669,170.363 284.662,170.71 284.649,171.043C284.635,171.376 284.615,171.63 284.589,171.803C284.815,171.776 285.105,171.76 285.459,171.753C285.812,171.746 286.055,171.743 286.189,171.743L286.189,173.283L280.349,173.283L280.349,171.963C280.655,171.95 280.912,171.91 281.119,171.843C281.325,171.776 281.485,171.623 281.599,171.383C281.712,171.143 281.769,170.756 281.769,170.223L281.769,160.643L280.849,160.643C280.089,160.656 279.489,160.916 279.049,161.423C278.609,161.93 278.389,162.723 278.389,163.803L277.069,163.803L277.169,159.283L289.289,159.283L289.409,163.803L288.089,163.803Z" style="fill-rule:nonzero;"/>
                <path d="M289.149,173.283L289.149,171.903C289.522,171.903 289.822,171.796 290.049,171.583C290.275,171.37 290.465,171.09 290.619,170.743C290.772,170.396 290.922,170.023 291.069,169.623L294.969,158.923L296.369,158.923L300.629,169.823C300.709,170.023 300.815,170.326 300.949,170.733C301.082,171.14 301.162,171.496 301.189,171.803C301.415,171.776 301.632,171.76 301.839,171.753C302.045,171.746 302.215,171.743 302.349,171.743L302.349,173.283L296.969,173.283L296.969,171.963C297.342,171.963 297.599,171.886 297.739,171.733C297.879,171.58 297.942,171.37 297.929,171.103C297.915,170.836 297.842,170.536 297.709,170.203L297.309,169.103L292.969,169.183L292.649,170.123C292.582,170.296 292.485,170.553 292.359,170.893C292.232,171.233 292.115,171.516 292.009,171.743C292.222,171.716 292.479,171.7 292.779,171.693C293.079,171.686 293.295,171.683 293.429,171.683L293.429,173.283L289.149,173.283ZM293.469,167.683L296.809,167.683L295.889,165.183C295.715,164.703 295.562,164.22 295.429,163.733C295.295,163.246 295.195,162.816 295.129,162.443L295.109,162.443C295.055,162.67 294.975,163.01 294.869,163.463C294.762,163.916 294.595,164.456 294.369,165.083L293.469,167.683Z" style="fill-rule:nonzero;"/>
                <path d="M313.229,173.483L306.829,165.303C306.655,165.076 306.475,164.836 306.289,164.583C306.102,164.33 305.915,164.07 305.729,163.803L305.709,163.803L305.749,170.003C305.749,170.363 305.742,170.71 305.729,171.043C305.715,171.376 305.695,171.63 305.669,171.803C305.882,171.776 306.152,171.76 306.479,171.753C306.805,171.746 307.035,171.743 307.169,171.743L307.169,173.283L302.609,173.283L302.609,171.963C302.915,171.95 303.172,171.91 303.379,171.843C303.585,171.776 303.745,171.623 303.859,171.383C303.972,171.143 304.029,170.756 304.029,170.223L303.989,162.563C303.989,162.203 303.995,161.856 304.009,161.523C304.022,161.19 304.042,160.936 304.069,160.763C303.855,160.776 303.585,160.786 303.259,160.793C302.932,160.8 302.695,160.81 302.549,160.823L302.549,159.283L305.689,159.283L311.809,167.003C312.142,167.43 312.419,167.796 312.639,168.103C312.859,168.41 313.049,168.676 313.209,168.903L313.229,168.903L313.229,162.563C313.229,162.203 313.235,161.856 313.249,161.523C313.262,161.19 313.275,160.936 313.289,160.763C313.075,160.776 312.809,160.786 312.489,160.793C312.169,160.8 311.935,160.81 311.789,160.823L311.789,159.283L316.349,159.283L316.349,160.603C316.055,160.616 315.802,160.656 315.589,160.723C315.375,160.79 315.212,160.94 315.099,161.173C314.985,161.406 314.929,161.796 314.929,162.343L314.929,173.483L313.229,173.483Z" style="fill-rule:nonzero;"/>
                <path d="M316.909,173.283L316.909,171.903C317.282,171.903 317.582,171.796 317.809,171.583C318.035,171.37 318.225,171.09 318.379,170.743C318.532,170.396 318.682,170.023 318.829,169.623L322.729,158.923L324.129,158.923L328.389,169.823C328.469,170.023 328.575,170.326 328.709,170.733C328.842,171.14 328.922,171.496 328.949,171.803C329.175,171.776 329.392,171.76 329.599,171.753C329.805,171.746 329.975,171.743 330.109,171.743L330.109,173.283L324.729,173.283L324.729,171.963C325.102,171.963 325.359,171.886 325.499,171.733C325.639,171.58 325.702,171.37 325.689,171.103C325.675,170.836 325.602,170.536 325.469,170.203L325.069,169.103L320.729,169.183L320.409,170.123C320.342,170.296 320.245,170.553 320.119,170.893C319.992,171.233 319.875,171.516 319.769,171.743C319.982,171.716 320.239,171.7 320.539,171.693C320.839,171.686 321.055,171.683 321.189,171.683L321.189,173.283L316.909,173.283ZM321.229,167.683L324.569,167.683L323.649,165.183C323.475,164.703 323.322,164.22 323.189,163.733C323.055,163.246 322.955,162.816 322.889,162.443L322.869,162.443C322.815,162.67 322.735,163.01 322.629,163.463C322.522,163.916 322.355,164.456 322.129,165.083L321.229,167.683Z" style="fill-rule:nonzero;"/>
                <path d="M188.969,193.603C187.529,193.603 186.302,193.286 185.289,192.653C184.275,192.02 183.502,191.163 182.969,190.083C182.435,189.003 182.169,187.803 182.169,186.483C182.169,185.576 182.312,184.676 182.599,183.783C182.885,182.89 183.315,182.08 183.889,181.353C184.462,180.626 185.185,180.046 186.059,179.613C186.932,179.18 187.949,178.963 189.109,178.963C189.469,178.963 189.875,179 190.329,179.073C190.782,179.146 191.239,179.256 191.699,179.403C192.159,179.55 192.569,179.73 192.929,179.943L192.849,179.103L194.389,179.103L194.389,183.763L193.089,183.763C192.969,183.016 192.735,182.396 192.389,181.903C192.042,181.41 191.609,181.036 191.089,180.783C190.569,180.53 189.995,180.403 189.369,180.403C188.675,180.403 188.072,180.563 187.559,180.883C187.045,181.203 186.622,181.63 186.289,182.163C185.955,182.696 185.705,183.303 185.539,183.983C185.372,184.663 185.289,185.363 185.289,186.083C185.289,187.23 185.449,188.25 185.769,189.143C186.089,190.036 186.559,190.74 187.179,191.253C187.799,191.766 188.562,192.023 189.469,192.023C189.722,192.023 190.022,192.003 190.369,191.963C190.715,191.923 191.062,191.863 191.409,191.783C191.755,191.703 192.049,191.603 192.289,191.483L192.289,189.623C192.289,189.263 192.299,188.916 192.319,188.583C192.339,188.25 192.355,187.996 192.369,187.823C192.155,187.836 191.889,187.846 191.569,187.853C191.249,187.86 191.015,187.87 190.869,187.883L190.869,186.343L196.189,186.343L196.189,187.663C195.962,187.676 195.765,187.703 195.599,187.743C195.432,187.783 195.292,187.86 195.179,187.973C195.065,188.086 194.982,188.256 194.929,188.483C194.875,188.71 194.849,189.016 194.849,189.403L194.849,192.603L194.369,192.603C193.982,192.603 193.595,192.656 193.209,192.763C192.822,192.87 192.409,192.99 191.969,193.123C191.555,193.243 191.102,193.353 190.609,193.453C190.115,193.553 189.569,193.603 188.969,193.603Z" style="fill-rule:nonzero;"/>
                <path d="M197.669,193.283L197.669,191.963C197.975,191.95 198.232,191.91 198.439,191.843C198.645,191.776 198.805,191.623 198.919,191.383C199.032,191.143 199.089,190.756 199.089,190.223L199.089,182.563C199.089,182.203 199.099,181.856 199.119,181.523C199.139,181.19 199.155,180.936 199.169,180.763C198.955,180.776 198.689,180.786 198.369,180.793C198.049,180.8 197.815,180.81 197.669,180.823L197.669,179.283C198.615,179.27 199.562,179.263 200.509,179.263C201.455,179.263 202.402,179.256 203.349,179.243C204.522,179.23 205.542,179.363 206.409,179.643C207.275,179.923 207.942,180.376 208.409,181.003C208.875,181.63 209.095,182.476 209.069,183.543C209.055,184.103 208.919,184.636 208.659,185.143C208.399,185.65 208.012,186.096 207.499,186.483C206.985,186.87 206.335,187.176 205.549,187.403C205.802,187.51 206.052,187.683 206.299,187.923C206.545,188.163 206.755,188.416 206.929,188.683L207.869,190.083C208.162,190.536 208.422,190.896 208.649,191.163C208.875,191.43 209.102,191.626 209.329,191.753C209.555,191.88 209.815,191.95 210.109,191.963L210.109,193.283L206.809,193.283C206.569,193.11 206.332,192.86 206.099,192.533C205.865,192.206 205.615,191.83 205.349,191.403L203.869,189.003C203.695,188.736 203.545,188.51 203.419,188.323C203.292,188.136 203.162,187.976 203.029,187.843L201.989,187.843L201.989,189.983C201.989,190.356 201.982,190.71 201.969,191.043C201.955,191.376 201.935,191.63 201.909,191.803C202.055,191.79 202.242,191.78 202.469,191.773C202.695,191.766 202.919,191.76 203.139,191.753C203.359,191.746 203.515,191.743 203.609,191.743L203.609,193.283L197.669,193.283ZM202.949,186.403C203.695,186.403 204.295,186.293 204.749,186.073C205.202,185.853 205.532,185.52 205.739,185.073C205.945,184.626 206.049,184.063 206.049,183.383C206.049,182.743 205.949,182.24 205.749,181.873C205.549,181.506 205.299,181.233 204.999,181.053C204.699,180.873 204.395,180.76 204.089,180.713C203.782,180.666 203.529,180.643 203.329,180.643C203.049,180.643 202.809,180.676 202.609,180.743C202.409,180.81 202.255,180.956 202.149,181.183C202.042,181.41 201.989,181.756 201.989,182.223L201.989,186.323C202.135,186.336 202.289,186.353 202.449,186.373C202.609,186.393 202.775,186.403 202.949,186.403Z" style="fill-rule:nonzero;"/>
                <path d="M216.889,193.603C215.622,193.603 214.545,193.39 213.659,192.963C212.772,192.536 212.055,191.966 211.509,191.253C210.962,190.54 210.562,189.75 210.309,188.883C210.055,188.016 209.929,187.15 209.929,186.283C209.929,185.443 210.072,184.593 210.359,183.733C210.645,182.873 211.079,182.083 211.659,181.363C212.239,180.643 212.969,180.063 213.849,179.623C214.729,179.183 215.762,178.963 216.949,178.963C218.162,178.963 219.209,179.183 220.089,179.623C220.969,180.063 221.689,180.646 222.249,181.373C222.809,182.1 223.225,182.89 223.499,183.743C223.772,184.596 223.909,185.443 223.909,186.283C223.909,187.11 223.765,187.95 223.479,188.803C223.192,189.656 222.759,190.446 222.179,191.173C221.599,191.9 220.869,192.486 219.989,192.933C219.109,193.38 218.075,193.603 216.889,193.603ZM217.109,192.143C217.802,192.143 218.382,191.973 218.849,191.633C219.315,191.293 219.689,190.85 219.969,190.303C220.249,189.756 220.449,189.16 220.569,188.513C220.689,187.866 220.749,187.236 220.749,186.623C220.749,185.703 220.669,184.863 220.509,184.103C220.349,183.343 220.102,182.686 219.769,182.133C219.435,181.58 219.012,181.153 218.499,180.853C217.985,180.553 217.382,180.41 216.689,180.423C216.009,180.436 215.435,180.62 214.969,180.973C214.502,181.326 214.129,181.78 213.849,182.333C213.569,182.886 213.369,183.49 213.249,184.143C213.129,184.796 213.069,185.43 213.069,186.043C213.069,186.67 213.139,187.336 213.279,188.043C213.419,188.75 213.642,189.416 213.949,190.043C214.255,190.67 214.669,191.176 215.189,191.563C215.709,191.95 216.349,192.143 217.109,192.143Z" style="fill-rule:nonzero;"/>
                <path d="M231.269,180.603C230.975,180.616 230.722,180.656 230.509,180.723C230.295,180.79 230.132,180.94 230.019,181.173C229.905,181.406 229.849,181.796 229.849,182.343L229.849,187.843C229.849,188.683 229.939,189.373 230.119,189.913C230.299,190.453 230.539,190.88 230.839,191.193C231.139,191.506 231.479,191.73 231.859,191.863C232.239,191.996 232.629,192.07 233.029,192.083C233.762,192.11 234.389,191.97 234.909,191.663C235.429,191.356 235.829,190.883 236.109,190.243C236.389,189.603 236.529,188.79 236.529,187.803L236.529,182.563C236.529,182.203 236.535,181.856 236.549,181.523C236.562,181.19 236.582,180.936 236.609,180.763C236.395,180.776 236.125,180.786 235.799,180.793C235.472,180.8 235.235,180.81 235.089,180.823L235.089,179.283L239.729,179.283L239.729,180.603C239.435,180.616 239.182,180.656 238.969,180.723C238.755,180.79 238.592,180.94 238.479,181.173C238.365,181.406 238.309,181.796 238.309,182.343L238.309,187.343C238.309,188.49 238.169,189.463 237.889,190.263C237.609,191.063 237.215,191.71 236.709,192.203C236.202,192.696 235.609,193.053 234.929,193.273C234.249,193.493 233.509,193.603 232.709,193.603C231.589,193.603 230.655,193.443 229.909,193.123C229.162,192.803 228.572,192.356 228.139,191.783C227.705,191.21 227.399,190.55 227.219,189.803C227.039,189.056 226.949,188.256 226.949,187.403L226.949,182.563C226.949,182.203 226.959,181.856 226.979,181.523C226.999,181.19 227.015,180.936 227.029,180.763C226.815,180.776 226.549,180.786 226.229,180.793C225.909,180.8 225.675,180.81 225.529,180.823L225.529,179.283L231.269,179.283L231.269,180.603Z" style="fill-rule:nonzero;"/>
                <path d="M241.049,191.963C241.355,191.95 241.612,191.91 241.819,191.843C242.025,191.776 242.185,191.623 242.299,191.383C242.412,191.143 242.469,190.756 242.469,190.223L242.469,182.563C242.469,182.203 242.479,181.856 242.499,181.523C242.519,181.19 242.535,180.936 242.549,180.763C242.335,180.776 242.069,180.786 241.749,180.793C241.429,180.8 241.195,180.81 241.049,180.823L241.049,179.283C241.995,179.27 242.942,179.263 243.889,179.263C244.835,179.263 245.782,179.256 246.729,179.243C247.902,179.23 248.925,179.383 249.799,179.703C250.672,180.023 251.345,180.516 251.819,181.183C252.292,181.85 252.515,182.716 252.489,183.783C252.475,184.316 252.349,184.84 252.109,185.353C251.869,185.866 251.515,186.333 251.049,186.753C250.582,187.173 249.995,187.516 249.289,187.783C248.582,188.05 247.755,188.196 246.809,188.223C246.515,188.236 246.259,188.243 246.039,188.243C245.819,188.243 245.595,188.236 245.369,188.223L245.369,189.983C245.369,190.356 245.362,190.71 245.349,191.043C245.335,191.376 245.315,191.63 245.289,191.803C245.435,191.79 245.622,191.78 245.849,191.773C246.075,191.766 246.299,191.76 246.519,191.753C246.739,191.746 246.895,191.743 246.989,191.743L246.989,193.283L241.049,193.283L241.049,191.963ZM245.369,186.723C245.515,186.736 245.662,186.75 245.809,186.763C245.955,186.776 246.109,186.783 246.269,186.783C247.002,186.783 247.599,186.66 248.059,186.413C248.519,186.166 248.855,185.806 249.069,185.333C249.282,184.86 249.389,184.283 249.389,183.603C249.389,182.936 249.299,182.403 249.119,182.003C248.939,181.603 248.709,181.306 248.429,181.113C248.149,180.92 247.855,180.793 247.549,180.733C247.242,180.673 246.962,180.643 246.709,180.643C246.429,180.643 246.189,180.676 245.989,180.743C245.789,180.81 245.635,180.956 245.529,181.183C245.422,181.41 245.369,181.756 245.369,182.223L245.369,186.723Z" style="fill-rule:nonzero;"/>
            </g>
        </g>
    </g>
</svg>
